<svg xmlns="http://www.w3.org/2000/svg" viewBox="0 0 24 24" fill="#fff"><path d="M12.913 2.155c-.27-.264-.476-.79-.476-1.502h-.703c0 .878.118 1.453.518 1.936a2.648 2.648 0 01.378.58c.203.4.156.883-.178 1.3l-.226.264a2.91 2.91 0 00-.73 1.834c0 .356.126.793.42 1.138l.685.836c.264.331.428.66.428 1.082 0 1.25-1.135 1.503-1.637 1.545v.693c1.233-.03 2.34-.693 2.34-2.238 0-.663-.223-1.144-.555-1.554l-.65-.77c-.34-.41-.53-.782-.53-1.282a1.642 1.642 0 01.402-1.042l.307-.369c.404-.492.518-1.213.208-1.85v-.001zm1.258 7.37c-.305-.38-.415-.8-.306-1.2h-.605a2.128 2.128 0 00.324 1.504l.115.156c.2.253.4.526.4 1.05 0 1.488-1.39 1.706-2.023 1.733v.683c1.472.03 2.63-1.046 2.63-2.416 0-.698-.225-1.147-.535-1.51zm2.347-4.103a1.442 1.442 0 01-.137-1.133l-.21-.49h-.534l.19.467c.074.195.034.42-.1.59l-.497.668c-.687.915-.968 1.826-.856 2.766h.624c-.068-.78.106-1.446.602-2.12l.504-.68c.365-.487.5-1.135.414-2.068zm-5.068-1.19c-.31.39-.413.794-.316 1.18h-.6c-.16-.628.026-1.205.342-1.527v-.004zm-1.802 8.761h8.56c-.05.58-.292 1.09-.738 1.5-1.353 1.344-4.8 1.1-6.19 1.026v-2.526h-1.632zm-.773 3.125h4.15c4.717 0 5.485.03 6.96-.3.948-.216 1.716-.763 2.227-1.543l.53-.787.49 5c.343.344.606.843.606 1.4v1.17c0 .126-.145.228-.352.285-.873.197-2.617.382-4.523.513l-4.152.278v.85c1.8-.13 3.652-.303 5.45-.58l1.093-.198v-.93c0-2.42-2.183-2.62-5.44-2.62v.6h2.247c.504 0 .918.067 1.258.196-1.076.626-2.502.825-4.464.825zm-2.072-1.745c-.173 0-.317-.22-.317-.5s.145-.5.317-.5.316.223.316.5-.143.5-.316.5z"/></svg>
